<svg width="40" height="32" viewBox="0 0 40 32" fill="none" xmlns="http://www.w3.org/2000/svg">
    <path opacity="0.15" fill-rule="evenodd" clip-rule="evenodd" d="M3 1C1.89543 1 1 1.89543 1 3V28C1 29.1046 1.89543 30 3 30H37C38.1046 30 39 29.1046 39 28V3C39 1.89543 38.1046 1 37 1H3ZM36 9H4V28H36V9Z" fill="url(#paint0_linear)" />
    <path d="M37.6172 0.375H2.38281C1.06903 0.375 0 1.44403 0 2.75781V29.2422C0 30.556 1.06903 31.625 2.38281 31.625H37.6172C38.931 31.625 40 30.556 40 29.2422V2.75781C40 1.44403 38.931 0.375 37.6172 0.375ZM38.4375 29.2422C38.4375 29.6945 38.0695 30.0625 37.6172 30.0625H2.38281C1.93054 30.0625 1.5625 29.6945 1.5625 29.2422V2.75781C1.5625 2.30554 1.93054 1.9375 2.38281 1.9375H37.6172C38.0695 1.9375 38.4375 2.30554 38.4375 2.75781V29.2422Z" fill="url(#paint1_linear)" />
    <path d="M10.2423 5.3094C10.2618 5.3564 10.2859 5.40157 10.314 5.44368C10.3421 5.48671 10.3751 5.52669 10.4111 5.56239C10.4468 5.5984 10.4868 5.63136 10.5298 5.66005C10.5719 5.68843 10.6171 5.71254 10.665 5.73207C10.7117 5.7516 10.7608 5.76656 10.8109 5.77663C10.8609 5.7867 10.9125 5.79128 10.9631 5.79128C11.0147 5.79128 11.0657 5.7867 11.1163 5.77663C11.1664 5.76656 11.2155 5.7516 11.2625 5.73207C11.3095 5.71254 11.3547 5.68843 11.3977 5.66005C11.4398 5.63136 11.4798 5.5984 11.5164 5.56239C11.5524 5.52669 11.5845 5.48671 11.6132 5.44368C11.6415 5.40157 11.6656 5.3564 11.6852 5.3094C11.7047 5.2618 11.7197 5.21266 11.7297 5.16322C11.7398 5.11256 11.7444 5.06099 11.7444 5.01003C11.7444 4.95937 11.7398 4.90779 11.7297 4.85774C11.7197 4.80769 11.7047 4.75856 11.6852 4.71187C11.6656 4.66396 11.6415 4.61879 11.6132 4.57668C11.5845 4.53365 11.5524 4.49367 11.5164 4.45796C11.4798 4.42195 11.4398 4.38899 11.3977 4.36092C11.3547 4.33284 11.3095 4.30873 11.2625 4.2892C11.2155 4.26967 11.1664 4.25471 11.1163 4.24464C11.0156 4.2242 10.9119 4.2242 10.8109 4.24464C10.7608 4.25471 10.7117 4.26967 10.665 4.2892C10.6171 4.30873 10.5719 4.33284 10.5298 4.36092C10.4868 4.38899 10.4468 4.42195 10.4111 4.45796C10.3751 4.49367 10.3421 4.53365 10.314 4.57668C10.2859 4.61879 10.2618 4.66396 10.2423 4.71187C10.2228 4.75856 10.2078 4.80769 10.1978 4.85774C10.1874 4.90779 10.1819 4.95937 10.1819 5.01003C10.1819 5.06099 10.1874 5.11256 10.1978 5.16322C10.2078 5.21266 10.2228 5.2618 10.2423 5.3094Z" fill="url(#paint3_linear)" />
    <path d="M27.023 20.6857V21.4745C27.023 21.9113 26.6678 22.2668 26.2311 22.2668H26.2201C25.7842 22.2668 25.4297 21.9113 25.4297 21.4745V20.6857C25.4297 20.2489 25.7842 19.8935 26.2201 19.8935H26.2311C26.6678 19.8935 27.023 20.2489 27.023 20.6857Z" fill="url(#paint4_linear)" />
    <path d="M31.4297 20.6857V21.4745C31.4297 21.9113 31.0745 22.2668 30.6377 22.2668H30.6266C30.1907 22.2668 29.8362 21.9113 29.8362 21.4745V20.6857C29.8362 20.2489 30.1907 19.8935 30.6266 19.8935H30.6377C31.0745 19.8935 31.4297 20.2489 31.4297 20.6857Z" fill="url(#paint5_linear)" />
    <path d="M31.4297 16.2791V17.0679C31.4297 17.5047 31.0745 17.8602 30.6377 17.8602H30.6266C30.1907 17.8602 29.8362 17.5047 29.8362 17.0679V16.2791C29.8362 15.8423 30.1907 15.4868 30.6266 15.4868H30.6377C31.0745 15.4868 31.4297 15.8423 31.4297 16.2791Z" fill="url(#paint6_linear)" />
    <path d="M35.8578 20.6857V21.4745C35.8578 21.9113 35.5026 22.2668 35.0659 22.2668H35.0549C34.619 22.2668 34.2645 21.9113 34.2645 21.4745V20.6857C34.2645 20.2489 34.619 19.8935 35.0549 19.8935H35.0659C35.5026 19.8935 35.8578 20.2489 35.8578 20.6857Z" fill="url(#paint7_linear)" />
    <path d="M31.4297 25.0933V25.8821C31.4297 26.3189 31.0745 26.6744 30.6377 26.6744H30.6266C30.1907 26.6744 29.8362 26.3189 29.8362 25.8821V25.0933C29.8362 24.6565 30.1907 24.3011 30.6266 24.3011H30.6377C31.0745 24.3011 31.4297 24.6565 31.4297 25.0933Z" fill="url(#paint8_linear)" />
    <path d="M27.023 25.0933V25.8821C27.023 26.3189 26.6678 26.6744 26.2311 26.6744H26.2201C25.7842 26.6744 25.4297 26.3189 25.4297 25.8821V25.0933C25.4297 24.6565 25.7842 24.3011 26.2201 24.3011H26.2311C26.6678 24.3011 27.023 24.6565 27.023 25.0933Z" fill="url(#paint9_linear)" />
    <path d="M22.6167 20.6857V21.4745C22.6167 21.9113 22.2615 22.2668 21.8247 22.2668H21.8136C21.3778 22.2668 21.0233 21.9113 21.0233 21.4745V20.6857C21.0233 20.2489 21.3778 19.8935 21.8136 19.8935H21.8247C22.2615 19.8935 22.6167 20.2489 22.6167 20.6857Z" fill="url(#paint10_linear)" />
    <path d="M27.023 16.2791V17.0679C27.023 17.5047 26.6678 17.8602 26.2311 17.8602H26.2201C25.7842 17.8602 25.4297 17.5047 25.4297 17.0679V16.2791C25.4297 15.8423 25.7842 15.4868 26.2201 15.4868H26.2311C26.6678 15.4868 27.023 15.8423 27.023 16.2791Z" fill="url(#paint11_linear)" />
    <path d="M22.6167 25.0933V25.8821C22.6167 26.3189 22.2615 26.6744 21.8247 26.6744H21.8136C21.3778 26.6744 21.0233 26.3189 21.0233 25.8821V25.0933C21.0233 24.6565 21.3778 24.3011 21.8136 24.3011H21.8247C22.2615 24.3011 22.6167 24.6565 22.6167 25.0933Z" fill="url(#paint12_linear)" />
    <path d="M17.2102 20.6857V21.4745C17.2102 21.9113 16.855 22.2668 16.4182 22.2668H16.4071C15.9713 22.2668 15.6168 21.9113 15.6168 21.4745V20.6857C15.6168 20.2489 15.9713 19.8935 16.4071 19.8935H16.4182C16.855 19.8935 17.2102 20.2489 17.2102 20.6857Z" fill="url(#paint13_linear)" />
    <path d="M17.2102 16.2791V17.0679C17.2102 17.5047 16.855 17.8602 16.4182 17.8602H16.4071C15.9713 17.8602 15.6168 17.5047 15.6168 17.0679V16.2791C15.6168 15.8423 15.9713 15.4868 16.4071 15.4868H16.4182C16.855 15.4868 17.2102 15.8423 17.2102 16.2791Z" fill="url(#paint14_linear)" />
    <path d="M22.6167 16.2791V17.0679C22.6167 17.5047 22.2615 17.8602 21.8247 17.8602H21.8136C21.3778 17.8602 21.0233 17.5047 21.0233 17.0679V16.2791C21.0233 15.8423 21.3778 15.4868 21.8136 15.4868H21.8247C22.2615 15.4868 22.6167 15.8423 22.6167 16.2791Z" fill="url(#paint15_linear)" />
    <path d="M13.5685 20.6857V21.4745C13.5685 21.9113 13.2133 22.2668 12.7766 22.2668H12.7656C12.3297 22.2668 11.9752 21.9113 11.9752 21.4745V20.6857C11.9752 20.2489 12.3297 19.8935 12.7656 19.8935H12.7766C13.2133 19.8935 13.5685 20.2489 13.5685 20.6857Z" fill="url(#paint16_linear)" />
    <path d="M13.5685 16.2791V17.0679C13.5685 17.5047 13.2133 17.8602 12.7766 17.8602H12.7656C12.3297 17.8602 11.9752 17.5047 11.9752 17.0679V16.2791C11.9752 15.8423 12.3297 15.4868 12.7656 15.4868H12.7766C13.2133 15.4868 13.5685 15.8423 13.5685 16.2791Z" fill="url(#paint17_linear)" />
    <path d="M8.16198 20.6857V21.4745C8.16198 21.9113 7.80678 22.2668 7.36999 22.2668H7.35901C6.92221 22.2668 6.56702 21.9113 6.56702 21.4745V20.6857C6.56702 20.2489 6.92221 19.8935 7.35901 19.8935H7.36999C7.80678 19.8935 8.16198 20.2489 8.16198 20.6857Z" fill="url(#paint18_linear)" />
    <path d="M13.5685 25.0933V25.8821C13.5685 26.3189 13.2133 26.6744 12.7766 26.6744H12.7656C12.3297 26.6744 11.9752 26.3189 11.9752 25.8821V25.0933C11.9752 24.6565 12.3297 24.3011 12.7656 24.3011H12.7766C13.2133 24.3011 13.5685 24.6565 13.5685 25.0933Z" fill="url(#paint19_linear)" />
    <path d="M8.16198 16.2791V17.0679C8.16198 17.5047 7.80678 17.8602 7.36999 17.8602H7.35901C6.92221 17.8602 6.56702 17.5047 6.56702 17.0679V16.2791C6.56702 15.8423 6.92221 15.4868 7.35901 15.4868H7.36999C7.80678 15.4868 8.16198 15.8423 8.16198 16.2791Z" fill="url(#paint20_linear)" />
    <defs>
        <linearGradient id="paint0_linear" x1="20" y1="1" x2="20" y2="30" gradientUnits="userSpaceOnUse">
            <stop stop-color="#FF895B" />
            <stop offset="1" stop-color="#FF6B3B" />
        </linearGradient>
        <linearGradient id="paint1_linear" x1="20" y1="0.375" x2="20" y2="31.625" gradientUnits="userSpaceOnUse">
            <stop stop-color="#FFC5AB" />
            <stop offset="1" stop-color="#FFA481" />
        </linearGradient>
        <linearGradient id="paint3_linear" x1="10.9652" y1="4.22411" x2="10.9652" y2="5.78745" gradientUnits="userSpaceOnUse">
            <stop stop-color="#FF6B3B" />
            <stop offset="1" stop-color="#FF895B" />
        </linearGradient>
        <linearGradient id="paint4_linear" x1="26.2269" y1="19.8935" x2="26.2269" y2="22.2668" gradientUnits="userSpaceOnUse">
            <stop stop-color="#FFC5AB" />
            <stop offset="1" stop-color="#FF895B" />
        </linearGradient>
        <linearGradient id="paint5_linear" x1="31.6336" y1="19.8935" x2="31.6336" y2="22.2668" gradientUnits="userSpaceOnUse">
            <stop stop-color="#FF6B3B" />
            <stop offset="1" stop-color="#FF895B" />
        </linearGradient>
        <linearGradient id="paint6_linear" x1="31.6336" y1="15.4868" x2="31.6336" y2="17.8602" gradientUnits="userSpaceOnUse">
            <stop stop-color="#FF6B3B" />
            <stop offset="1" stop-color="#FF895B" />
        </linearGradient>
        <linearGradient id="paint7_linear" x1="36.0402" y1="19.8935" x2="36.0402" y2="22.2668" gradientUnits="userSpaceOnUse">
            <stop stop-color="#FFC5AB" />
            <stop offset="1" stop-color="#FF895B" />
        </linearGradient>
        <linearGradient id="paint8_linear" x1="31.6336" y1="24.3011" x2="31.6336" y2="26.6744" gradientUnits="userSpaceOnUse">
            <stop stop-color="#FF6B3B" />
            <stop offset="1" stop-color="#FF895B" />
        </linearGradient>
        <linearGradient id="paint9_linear" x1="26.2269" y1="24.3011" x2="26.2269" y2="26.6744" gradientUnits="userSpaceOnUse">
            <stop stop-color="#FF6B3B" />
            <stop offset="1" stop-color="#FF895B" />
        </linearGradient>
        <linearGradient id="paint10_linear" x1="21.8202" y1="19.8935" x2="21.8202" y2="22.2668" gradientUnits="userSpaceOnUse">
            <stop stop-color="#FF6B3B" />
            <stop offset="1" stop-color="#FF895B" />
        </linearGradient>
        <linearGradient id="paint11_linear" x1="26.2269" y1="15.4868" x2="26.2269" y2="17.8602" gradientUnits="userSpaceOnUse">
            <stop stop-color="#FFC5AB" />
            <stop offset="1" stop-color="#FF895B" />
        </linearGradient>
        <linearGradient id="paint12_linear" x1="22.8202" y1="24.3011" x2="22.8202" y2="26.6744" gradientUnits="userSpaceOnUse">
            <stop stop-color="#FF6B3B" />
            <stop offset="1" stop-color="#FF895B" />
        </linearGradient>
        <linearGradient id="paint13_linear" x1="17.4135" y1="19.8935" x2="17.4135" y2="22.2668" gradientUnits="userSpaceOnUse">
            <stop stop-color="#FF6B3B" />
            <stop offset="1" stop-color="#FF895B" />
        </linearGradient>
        <linearGradient id="paint14_linear" x1="17.4135" y1="15.4868" x2="17.4135" y2="17.8602" gradientUnits="userSpaceOnUse">
            <stop stop-color="#FF6B3B" />
            <stop offset="1" stop-color="#FF895B" />
        </linearGradient>
        <linearGradient id="paint15_linear" x1="22.8202" y1="15.4868" x2="22.8202" y2="17.8602" gradientUnits="userSpaceOnUse">
            <stop stop-color="#FF6B3B" />
            <stop offset="1" stop-color="#FF895B" />
        </linearGradient>
        <linearGradient id="paint16_linear" x1="12.3664" y1="19.8935" x2="12.3664" y2="22.2668" gradientUnits="userSpaceOnUse">
            <stop stop-color="#FFC5AB" />
            <stop offset="1" stop-color="#FF895B" />
        </linearGradient>
        <linearGradient id="paint17_linear" x1="12.3664" y1="15.4868" x2="12.3664" y2="17.8602" gradientUnits="userSpaceOnUse">
            <stop stop-color="#FFC5AB" />
            <stop offset="1" stop-color="#FF895B" />
        </linearGradient>
        <linearGradient id="paint18_linear" x1="7.95972" y1="19.8935" x2="7.95972" y2="22.2668" gradientUnits="userSpaceOnUse">
            <stop stop-color="#FF6B3B" />
            <stop offset="1" stop-color="#FF895B" />
        </linearGradient>
        <linearGradient id="paint19_linear" x1="12.3664" y1="24.3011" x2="12.3664" y2="26.6744" gradientUnits="userSpaceOnUse">
            <stop stop-color="#FFC5AB" />
            <stop offset="1" stop-color="#FF895B" />
        </linearGradient>
        <linearGradient id="paint20_linear" x1="7.95972" y1="15.4868" x2="7.95972" y2="17.8602" gradientUnits="userSpaceOnUse">
            <stop stop-color="#FF6B3B" />
            <stop offset="1" stop-color="#FF895B" />
        </linearGradient>
    </defs>
</svg>
